<?xml version="1.0" encoding="utf-8"?>
<!-- Generator: Adobe Illustrator 16.0.4, SVG Export Plug-In . SVG Version: 6.00 Build 0)  -->
<!DOCTYPE svg PUBLIC "-//W3C//DTD SVG 1.1//EN" "http://www.w3.org/Graphics/SVG/1.1/DTD/svg11.dtd">
<svg version="1.1" id="Layer_1" xmlns="http://www.w3.org/2000/svg" xmlns:xlink="http://www.w3.org/1999/xlink" x="0px" y="0px"
	 width="88.834px" height="88.7363px" viewBox="0 0 88.834 88.7363" enable-background="new 0 0 88.834 88.7363"
	 xml:space="preserve">
<path id="Close_x2F_Cancel" fill="#2C3E50" d="M50.3481,44.3677L74.0713,20.644c1.6465-1.6455,1.6465-4.3203,0-5.9658
	c-1.6455-1.645-4.3193-1.645-5.9648,0L44.3823,38.4028L20.6582,14.7471c-1.646-1.646-4.3198-1.646-5.9653,0
	c-1.646,1.6455-1.646,4.3203,0,5.9653L38.417,44.3677L14.7617,68.0918c-1.646,1.6455-1.646,4.3193,0,5.9658
	c1.6455,1.6465,4.3193,1.6465,5.9653,0l23.7236-23.7241l23.7251,23.7241c1.6445,1.6465,4.3193,1.6465,5.9639,0
	c1.6465-1.6465,1.6465-4.3203,0-5.9658L50.3481,44.3677z"/>
</svg>
