<?xml version="1.0" encoding="utf-8"?>
<!-- Generator: Adobe Illustrator 16.0.4, SVG Export Plug-In . SVG Version: 6.00 Build 0)  -->
<!DOCTYPE svg PUBLIC "-//W3C//DTD SVG 1.1//EN" "http://www.w3.org/Graphics/SVG/1.1/DTD/svg11.dtd">
<svg version="1.1" id="Layer_1" xmlns="http://www.w3.org/2000/svg" xmlns:xlink="http://www.w3.org/1999/xlink" x="0px" y="0px"
	 width="88.834px" height="88.7363px" viewBox="0 0 88.834 88.7363" enable-background="new 0 0 88.834 88.7363"
	 xml:space="preserve">
<path fill="#2C3E50" d="M33.6489,35.0933c-7.478,0.0415-12.729,7.8423-9.4268,11.0459c4.7588,4.6167,14.2891,3.874,18.6978,2.2158
	C51.6934,45.0542,44.2422,35.0396,33.6489,35.0933z"/>
<path fill="#2C3E50" d="M57.8154,25.6221c-6.3535,0.0308-10.8179,6.6626-8.0127,9.3853c4.0449,3.9214,12.1445,3.2925,15.8916,1.8823
	C73.1494,34.0859,66.8174,25.5742,57.8154,25.6221z"/>
<path fill="#2C3E50" d="M75.8906,19.7334c-4.8545-2.6685-10.3076-3.9648-16.667-3.9648c-2.8057,0-5.7402,0.2505-8.9707,0.7603
	c-6.7847,1.0718-12,4.7012-14.5063,6.4458c-0.1138,0.0786-0.2236,0.1572-0.3247,0.2246c-0.2422,0.1011-0.896,0.2598-1.6099,0.2598
	c-0.3223,0-0.5396-0.0312-0.666-0.0591c-2.3193-0.502-4.8896-0.7661-7.4297-0.7661c-4.0859,0-8.0664,0.6787-11.5122,1.9604
	c-4.2695,1.5898-7.7227,4.063-10.2651,7.356C0.6895,36.1519,0.9165,41.9199,2.5029,45.5c1.4238,3.2114,3.7402,4.7329,5.2891,5.6504
	c-0.6367,1.6719-1.2725,4.3574,0.3662,8.3066c1.0469,2.5234,2.667,4.7598,4.8145,6.6445c1.8525,1.6289,4.1045,3.002,6.6943,4.0762
	c5.5391,2.3086,11.3145,2.791,15.1836,2.791c1.4888,0,2.9683-0.0742,4.3984-0.2168c7.4409-0.748,13.6279-2.7656,18.3838-6.002
	c4.3145-2.9316,6.6172-6.3184,7.793-8.6426c1.5781-3.125,1.8525-6.3242,0.8057-9.1235c0.5645-0.3066,1.6211-0.6709,3.2812-0.6709
	c3.6523,0,8.7188-0.335,12.125-1.9326c3.5811-1.6802,5.6982-4.9937,5.8115-9.0947c0.0879-3.1958-1.0801-6.7485-3.2832-10.0024
	C82.0693,24.1938,79.1318,21.5127,75.8906,19.7334z M80.2236,42.7549c-2.833,1.3267-7.4941,1.6138-10.7139,1.6138
	c-5.3389,0-8.1641,2.9639-6.8652,5.5146c0.9561,1.8765,0.7705,4.0698-0.3613,6.3159c-1.9912,3.9414-7.6631,11.0488-23.3647,12.6289
	c-1.3013,0.1309-2.6685,0.1973-4.0708,0.1973c-9.2612,0-20.0259-3.0176-23.4253-11.207c-2.1846-5.2598,1.4888-6.0547,0.0786-8.6284
	c-0.7451-1.3584-4.1538-1.7646-5.772-5.4146c-1.0737-2.4238-1.2402-6.4429,0.9443-9.2705c4.5547-5.8911,12.25-7.9258,19.0425-7.9258
	c2.4204,0,4.7285,0.2603,6.7368,0.6934c0.4297,0.0928,0.8926,0.1343,1.3594,0.1343c1.3813,0,2.7876-0.3604,3.4287-0.8018
	c2.0645-1.4204,7.0938-5.1538,13.5269-6.1729c2.9209-0.4595,5.7441-0.7173,8.457-0.7173c5.4688,0,10.501,1.041,15.0615,3.5464
	C82.9766,28.0337,87.5107,39.335,80.2236,42.7549z"/>
</svg>
