<svg xmlns="http://www.w3.org/2000/svg" width="88.834" height="88.736" viewBox="0 0 88.834 88.7363" enable-background="new 0 0 88.834 88.7363"><path fill="#2C3E50" d="M50.348 44.368L74.07 20.644c1.648-1.645 1.648-4.32 0-5.966-1.644-1.645-4.318-1.645-5.963 0L44.38 38.403 20.658 14.747c-1.646-1.646-4.32-1.646-5.965 0-1.646 1.646-1.646 4.32 0 5.965l23.724 23.656-23.655 23.724c-1.646 1.645-1.646 4.32 0 5.966 1.645 1.646 4.32 1.646 5.965 0L44.45 50.334l23.726 23.724c1.644 1.646 4.32 1.646 5.964 0 1.646-1.647 1.646-4.32 0-5.966L50.348 44.368z"/></svg>