<svg xmlns="http://www.w3.org/2000/svg" width="88.834" height="88.736" viewBox="0 0 88.834 88.7363" enable-background="new 0 0 88.834 88.7363"><path fill="#2C3E50" d="M33.65 35.093c-7.48.042-12.73 7.843-9.428 11.046 4.76 4.616 14.29 3.873 18.698 2.215 8.773-3.3 1.322-13.315-9.27-13.262zM57.815 25.622c-6.353.03-10.818 6.663-8.012 9.385 4.045 3.922 12.144 3.293 15.89 1.883 7.456-2.804 1.124-11.316-7.878-11.268zM75.89 19.733c-4.854-2.668-10.307-3.964-16.666-3.964-2.806 0-5.74.25-8.97.76-6.786 1.07-12 4.7-14.507 6.445-.114.078-.224.157-.325.224-.242.1-.896.26-1.61.26-.322 0-.54-.032-.666-.06-2.32-.502-4.89-.766-7.43-.766-4.086 0-8.066.68-11.512 1.96-4.27 1.59-7.723 4.063-10.265 7.356C.69 36.152.916 41.92 2.502 45.5c1.424 3.21 3.74 4.733 5.29 5.65-.638 1.672-1.274 4.358.365 8.307 1.047 2.523 2.667 4.76 4.815 6.644 1.852 1.63 4.104 3.003 6.694 4.078 5.54 2.308 11.315 2.79 15.184 2.79 1.49 0 2.97-.074 4.4-.216 7.44-.748 13.627-2.766 18.383-6.002 4.314-2.932 6.617-6.32 7.793-8.643 1.578-3.125 1.852-6.324.806-9.123.564-.307 1.62-.67 3.28-.67 3.653 0 8.72-.336 12.126-1.934 3.58-1.68 5.698-4.993 5.81-9.094.09-3.196-1.08-6.75-3.282-10.003-2.097-3.09-5.034-5.77-8.275-7.55zm4.334 23.022C77.39 44.082 72.73 44.37 69.51 44.37c-5.34 0-8.164 2.963-6.865 5.513.956 1.877.77 4.07-.362 6.316-1.99 3.94-7.663 11.048-23.364 12.628-1.303.13-2.67.197-4.072.197-9.26 0-20.026-3.017-23.426-11.207-2.184-5.26 1.49-6.054.08-8.628-.746-1.358-4.155-1.765-5.773-5.415-1.075-2.423-1.24-6.443.943-9.27 4.555-5.89 12.25-7.926 19.043-7.926 2.42 0 4.728.26 6.737.692.43.093.892.135 1.36.135 1.38 0 2.787-.36 3.428-.802 2.065-1.42 7.095-5.154 13.528-6.173 2.92-.46 5.744-.717 8.457-.717 5.468 0 10.5 1.04 15.06 3.546 8.692 4.774 13.226 16.075 5.94 19.495z"/></svg>