<svg xmlns="http://www.w3.org/2000/svg" width="500" height="500" viewBox="0 0 500 500"><path fill="#2C3E50" d="M210.343 362.394c-1.43 0-2.882.363-4.213 1.123-4.07 2.33-5.486 7.514-3.165 11.587.153.267.307.535.462.8l.008.013.054.095.01.02.014.023.024.04.012.02.018.03.01.02.026.043.008.015c.007.01.015.023.02.036l.01.01c.008.017.018.033.027.05l.003.006.027.046c.002.003.135.004.137.007.01.016.163.033.163.05v.003c0 .017-.11-.433-.1-.433h-.067c2.48 5 5.254 8.704 8.408 13.136 1.66 2.33 4.26 3.694 6.917 3.694 1.705 0 3.42-.45 4.913-1.515 3.825-2.72 4.715-8 1.993-11.823-3.366-4.73-6.092-8.917-8.332-12.832-1.57-2.744-4.438-4.266-7.387-4.266zm45.61 43.16c-3.414.002-6.635 2.073-7.934 5.45-1.687 4.382.498 9.3 4.88 10.986 5.316 2.046 10.807 3.574 16.35 4.553.502.088 1 .13 1.49.13 4.046 0 7.632-2.898 8.36-7.022.817-4.622-2.268-9.03-6.89-9.848-4.475-.79-8.918-2.027-13.206-3.678-1.004-.386-2.035-.57-3.05-.57zm74.67-10.54c-1.72 0-3.456.52-4.958 1.6-3.64 2.62-7.615 4.92-11.818 6.84-4.27 1.948-6.153 6.99-4.204 11.26 1.427 3.128 4.512 4.974 7.738 4.974 1.18 0 2.382-.248 3.526-.77.922-.42 1.838-.857 2.745-1.31.003 0 .003 0 .005-.002l.112-.056c.003 0 .004.24.007.237.02-.01.037.213.056.213h.003c.018 0 .036-.26.055-.27l.002-.12c.02-.01.037-.08.055-.09.003 0 .006-.246.01-.247.017-.01.035-.273.053-.273h.002c.016 0 .034.197.052.188.002 0 .007.103.01.102.017-.01.034.036.05.027.006-.002.008.025.013.023.013-.008.028-.002.043-.01.003 0 .008.003.01 0 .017-.007.033-.01.048-.02.005-.002.014-.004.018-.007l.04-.02c.007-.003.015-.006.02-.01.012-.005.026-.01.038-.017l.02-.01.044-.023.018-.01c.01-.005.022-.01.033-.017l.02-.01.042-.02c.007-.005.014-.01.022-.013l.03-.015.034-.018.028-.014.024-.012.035-.018c.01-.006.02-.01.03-.017l.025-.012.03-.016.034-.017.027-.015.023-.012.04-.02.023-.013.028-.015.03-.015.035-.018.02-.01c.016-.01.032-.018.05-.027l.015-.008.03-.015.014-.008.06-.032.006-.003c.035-.02.07-.037.105-.056l.006-.004.107-.055c1.762-.928 3.492-1.915 5.19-2.965h.002l.104-.065.004-.003.063-.04.006-.003.033-.02.007-.004c.018-.012.04-.024.057-.036l.012-.008.097-.06.012-.008.05-.032c.005-.002.01-.006.015-.01l.03-.018.014-.01.048-.03.02-.01.026-.017.04-.024.02-.013.03-.02.022-.013.037-.023.02-.014c.013-.008.025-.014.037-.023.008-.004.014-.01.022-.013l.033-.02c.006-.005.012-.01.018-.013.014-.01.03-.018.043-.027l.016-.01.04-.025.008-.006.048-.03c.003-.003.01-.007.012-.007.017-.012.033-.023.05-.033l.006-.004.044-.03c.003 0 .007-.004.01-.006l.05-.03c0-.002.006-.005.008-.006.035-.02.07-.044.104-.066.002 0 .003-.002.005-.003l.108-.068c.002 0 .002 0 .002-.002 1.193-.77 2.37-1.573 3.528-2.407 3.81-2.74 4.677-8.053 1.934-11.863-1.662-2.31-4.265-3.536-6.907-3.536zm35.534-52.588c-3.645 0-7.016 2.364-8.13 6.033-1.344 4.428-3.064 8.753-5.26 13.224-2.068 4.213-.33 9.306 3.884 11.376 1.206.59 2.484.872 3.742.872 3.14 0 6.158-1.747 7.635-4.755 1.8-3.663 3.354-7.298 4.69-11.017l.088-.246c0-.002.086-.003.087-.005.007-.02.108-.04.108-.06 0-.062-.043-.123-.022-.183 0-.002-.04-.006-.04-.007.006-.02-.008-.038-.002-.056 0 0 .023-.005.023-.007.006-.02.04-.038.04-.058v-.003c0-.018-.018-.037-.012-.054.002-.003-.013-.006-.012-.01.006-.017.004-.035.01-.052.002-.003 0-.008.002-.013l.016-.05c0-.005-.012-.007-.01-.01.006-.02.006-.036.006-.054v-.005c0-.018.025-.034.03-.052.002-.005.01-.01.01-.012.007-.017.017-.035.022-.05l.007-.016.017-.05.006-.013.015-.044.006-.017.015-.044.006-.018.015-.045.008-.023.016-.045.007-.018.012-.035.01-.03.012-.034.008-.023.014-.04c.003-.01.006-.02.01-.028l.01-.032c.002-.01.007-.02.01-.03l.01-.032.012-.033.01-.03.01-.028.01-.03.014-.04.003-.013.02-.054c0-.005.003-.01.004-.015.005-.017.01-.036.017-.052.002-.005-.194-.01-.192-.016.004-.012-.185-.02-.185-.033v-.004c0-.02.212-.043.218-.063.002-.004.102-.01.103-.013.008-.02.064-.04.07-.06.002-.003-.205-.005-.205-.007.007-.02-.185-.046-.185-.067v-.003c1-.867.8-1.738 1.066-2.618 1.352-4.488-1.067-9.225-5.553-10.586-.823-.25-1.537-.368-2.356-.368zm4.347-66.28c-.246 0-.495.012-.745.035-4.678.407-8.14 4.527-7.734 9.204.458 5.268.725 10.81.793 15.978.06 4.656 3.854 8.638 8.497 8.638h.114c4.695-1 8.45-4.168 8.388-8.86-.075-5.652-.364-11.446-.855-17.102-.385-4.427-4.097-7.89-8.46-7.89zm-15.357-65.528c-1.042 0-2.1.193-3.128.6-4.366 1.73-6.5 6.668-4.773 11.033 1.898 4.792 3.663 9.785 5.244 14.84 1.14 3.636 4.493 5.965 8.112 5.965.84 0 1.695-.125 2.54-.39 4.474-1.4 6.968-6.156 5.58-10.632-1.717-5.488-3.615-10.86-5.68-16.067-1.327-3.323-4.52-5.348-7.894-5.348zm-35.52-55.062c-2.326 0-4.644.95-6.322 2.815-3.14 3.49-2.857 8.865.633 12.005 3.353 3.017 6.673 6.533 9.867 10.45 1.68 2.06 4.126 3.128 6.59 3.128 1.89 0 3.79-.627 5.37-1.914 3.637-2.967 4.18-8.32 1.214-11.96h-.002l-.085-.105-.002-.003c-.028-.035-.055-.07-.083-.103-.003-.004 0-.002-.004-.005l-.084-.103.16-.003c-.015-.018.12-.034.12-.05v-.003c0-.017-.19-.034-.205-.05l-.086-.007c-.015-.015-.067-.03-.08-.046-.002-.003-.022-.002-.024-.005-.028-.034-.066-.067-.093-.1-.003-.004-.01-.227-.012-.23-.013-.016-.027-.27-.04-.27h-.004c-.013 0-.026.19-.04.173-.002-.003-.007.103-.01.1-.01-.014-.02.028-.033.014-.003-.003-.004.023-.007.02-.012-.016-.025-.017-.04-.033 0-.003-.005 0-.008-.004l-.03-.032c-.004-.006-.007-.01-.013-.015-.01-.014-.023-.027-.035-.04l-.013-.016-.026-.03c0-.004-.01-.015-.013-.018-.01-.015-.023-.03-.035-.043l-.013-.016-.027-.03-.016-.02-.034-.04-.006-.007-.032-.04c-.005-.005-.012-.013-.016-.02-.01-.008-.017-.016-.024-.026-.008-.01-.018-.02-.025-.03l-.023-.027-.02-.027-.016-.016-.073-.09c-.006-.005-.01-.012-.017-.02l-.02-.024-.013-.014c-.014-.02-.026-.032-.04-.05l-.015-.017-.022-.026c-.005-.005-.01-.01-.014-.017-.015-.018-.027-.03-.042-.05-.004-.004-.008-.008-.01-.012l-.026-.03-.01-.01c-.016-.02-.032-.04-.05-.06l-.003-.006c-.01-.01-.017-.02-.028-.03l-.007-.01c-.03-.033-.057-.068-.085-.1 0-.002-.002-.003-.003-.004-.03-.033-.058-.068-.086-.1l-.007-.01c-3.224-3.79-6.573-7.26-10.042-10.38-1.62-1.448-3.644-2.162-5.662-2.162zM565.97-256.052c-.738 0-1.484.204-2.152.63-1.86 1.19-2.21 3.662-1.023 5.523.004.007.205.013.205.02 0 .012-.18.023-.172.033 0 .002-.094.005-.094.007.007.01-.034.02-.028.03 0 .002-.02.004-.02.007.006.01.002.02.007.03.002 0-.003.004-.002.006.017.025.03.047.044.073l.02.033.003.004.07.11c0 .002.003.005.005.007.006.012.012.02.02.03l.002.006c.005.01.013.02.02.03l.007.01.016.027.007.01.017.026.008.01.015.026.007.01.016.024.01.018c.004.004.008.01.01.015l.014.02c.004.005.008.01.01.016l.014.02c.003.004.006.01.01.013.003.007.01.015.013.023.004.005-.032.007-.03.012.007.008-.017.017-.017.026v.002c0 .01.05.023.056.033h.02c.045.07.1.137.142.204 0 .002.007.005.008.006l.024.032c0 .002 0 0 .003.002.005.01.01.02.02.03 0 .004.002.005.004.008l.018.026.005.01.016.024.01.013.015.026c.003.002-.18.004-.178.006.008.01-.162.022-.162.032v-.16c0 .01.38-.128.388-.128h.002c.006 0 .014.185.022.196 0 .002 0 .083.002.085.09.138.18.318.27.456l.003.024c1.592 2.427 3.29 4.898 5.102 7.423.78 1.09 2.008 1.674 3.253 1.674.807 0 1.623-.24 2.328-.748 1.796-1.29 2.208-3.787.92-5.582-2.252-3.14-4.197-5.995-5.946-8.732-.764-1.196-2.055-1.848-3.375-1.848zm25.917 29.415c-1.25 0-2.48.584-3.26 1.68-1.28 1.795-.865 4.287.926 5.57.978.7 1.972 1.376 2.98 2.032 0 0 0 .002.002.003.012.006.02.01.03.018 0 0 0 .002.003.003.01.005.02.01.03.018l.004.003.03.02v.136c.012.007.02.154.032.154.043 0 .085-.08.127-.053.002 0 .003-.065.004-.065.01.007.018-.02.03-.015l.002-.014c.01.006.02.004.03.01 0 .002.002-.002.004 0 .01.004.02.008.028.014.002 0 .004.002.005.003l.027.017.008.005c.01.005.016.01.025.016.003 0 .004.002.006.004l.027.018.004.002.123.078.006.004c.007.006.013.01.022.014l.012.008.02.013.016.01.018.01.015.01c.006.004.013.01.02.013l.014.01.02.01c.004.005.01.008.015.01.005.005.013.01.018.013.006.004.013.01.02.012l.014.01.068.043.012.007.025.017c0 .002.005.004.007.006.01.004.018.01.025.015l.012.008.025.015.01.007.023.014.01.007c.01.006.02.01.027.016.003 0 .007.004.01.006l.025.015.01.007c.01.006.02.01.03.017l.005.003.07.044c.002 0 .006.004.008.005l.027.018.01.006.027.016.007.005c.008.006.018.01.026.017l.01.006.026.016.01.006.026.017c.003 0 .006.002.01.004.01.007.02.19.032.198.05.03.097.268.145.268h.002c.01 0 .022-.163.033-.156.003.002.005-.086.007-.084.01.006.02-.033.03-.027.002.002.003-.02.006-.017.01.006.02 0 .03.006l-.12-.002c.01.007-.093.01-.093.016v.077c0 .037.248.187.31.187h.063c.023 0-.373-.046.627-.03v-.038c1 .883 2.66 1.704 4.148 2.5.602.323 1.125.467 1.763.467 1.43 0 2.748-.772 3.47-2.12 1.042-1.946.278-4.374-1.67-5.417-2.94-1.575-5.81-3.344-8.49-5.255-.703-.502-1.53-.745-2.333-.745zm35.937 14.55c-1.942 0-3.646 1.418-3.95 3.397-.333 2.183 1.028 4.224 3.212 4.558.684.105 1.914.2 1.914.288v-.094c0 .012.446-.062.53-.062H629.842c.01 0 .02.116.03.117.004 0 .008.058.013.06.01 0 .018.03.027.03.005 0 .01.016.014.016.01.002.017.01.026.01.005 0 .01.004.016.005.01 0 .017.004.026.005.005 0 .01-.124.014-.123.014 0 .026-.12.04-.12h.098c.008 0 .016.133.025.135.005 0 .01.067.016.067.008 0 .016.034.024.035.005 0 .012.02.017.02.007 0 .016.01.025.01.005.002.01.007.016.007s.014.004.022.005h.02l.012.003c.016 0 .035.005.05.006h.015l.023.004c.006 0 .01 0 .016.002l.024.003h.016l.024.003.015.002.025.003c.005 0 .01-.155.014-.154.01 0 .017-.154.026-.154h.269c1.3 0 2.164.425 4.164.506v.242c0 .003-.116.252-.042.252H635.444c.028 0-.444-.137.556-.136v.067c0 .002-.446.07-.432.07h2.692c2.17 0 3.952-1.828 3.996-4.007.046-2.21-1.708-4.08-3.917-4.126-3.272-.067-6.604-.38-9.906-.884-.205-.032-.41-.07-.61-.07zm48.285-8.037c-.57 0-1.15.123-1.7.38-2.98 1.402-6.122 2.655-9.337 3.728-2.095.698-3.228 2.962-2.53 5.06.56 1.675 2.12 2.735 3.794 2.735.42 0 1.096-.068 1.515-.208 3.377-1.126 6.148-2.432 10.148-3.928 0 0-1 .206 0 .204 0-.018-.42.152-.383.152h.002c.01 0 .02-.215.03-.22.003-.003.005-.106.008-.107.008-.004.016-.06.023-.061.045-.02.09-.07.134-.09 1.998-.94 2.858-3.334 1.918-5.333-.68-1.45-2.12-2.314-3.623-2.314zm30.163-24.266c-1.202 0-2.39.54-3.178 1.568-2.035 2.656-4.24 5.187-6.552 7.522-1.555 1.57-1.543 4.103.026 5.658.78.772 1.797 1.158 2.815 1.158 1.03 0 2.06-.396 2.84-1.185.397-.398.79-.803 1.18-1.212v-.002c.01-.01.02-.018.028-.028l.002-.004.025-.024.006-.007.022-.025c.003-.002.005-.005.008-.006l.02-.023.01-.01c.006-.008.013-.014.02-.02l.01-.013.017-.018.015-.016.013-.014.02-.02.008-.01.023-.023.007-.006.025-.026c.002 0 .002-.003.003-.004.01-.008.018-.018.027-.027 0-.002.002-.003.003-.004 1.56-1.657 3.068-3.39 4.525-5.21 0 0 .002 0 .003-.002l.024-.03.007-.01.02-.024.01-.01c.004-.008.01-.017.017-.023l.012-.013.016-.02.012-.016.015-.017.015-.02.01-.013.02-.022.008-.012.018-.023.01-.01.018-.025.008-.01.022-.026.004-.006.023-.03.004-.003c.01-.01.017-.022.025-.032.297-.375.593-.755.886-1.138 1.344-1.754 1.01-4.265-.743-5.607-.726-.556-1.58-.825-2.43-.825zm19.005-34.726c-1.655 0-3.203 1.035-3.777 2.686-1.095 3.15-2.353 6.225-3.847 9.4-.94 2-.08 4.382 1.92 5.323.55.258 1.128.38 1.698.38 1.498 0 2.934-.845 3.618-2.286.798-1.698 1.544-3.392 2.242-5.097.005-.01.01-.02.014-.032 0-.002-.08-.004-.078-.007.005-.01-.066-.02-.066-.03v-.002c0-.012.088-.218.094-.218h.04c.017 0 .056.003.074-.04 0-.004.013.04.014.036.003-.01.01.008.014-.002.002-.004.005.003.007 0 .003-.01.008-.01.01-.017l.008-.014.01-.018.007-.018.008-.018.008-.02.007-.018.008-.022.007-.015.014-.036v-.002l.015-.04.003-.007c.004-.01.01-.02.013-.03l.004-.008.012-.03.005-.01.01-.028.006-.01.012-.03c0-.003.002.214.003.212.006-.01.01.184.015.184h.248c.026-1-.673-.572.327-.64v-.041c0-1.365 1-2.736 1-4.12v-.002c1-2.086-.35-4.366-2.436-5.092-.434-.15-.85-.222-1.286-.222zm6.335-39.148c-2.14 0-3.914 1.694-3.994 3.85-.143 3.816-.353 7.28-.64 10.588-.193 2.2 1.435 4.14 3.636 4.332.12.01.236.014.352.014 2.05 0 3.765-1.566 3.948-3.645.04-.453.084-.904.084-1.363v-.166c0-3.006.452-6.15.576-9.46.082-2.21-1.622-4.066-3.83-4.148-.05-.003-.082-.004-.133-.004zm-1.442-40.302c-.158 0-.32.01-.48.03-2.195.263-3.76 2.255-3.495 4.448.424 3.52.77 7.08 1.03 10.582.156 2.103 1.91 3.705 3.985 3.705.1 0 .2-.005.3-.012 2.203-.164 3.974-2.082 3.81-4.285-.127-1.712-.32-3.423-.32-5.132v-.095c0-.024-.126-.047-.128-.07 0-.005-.06-.013-.062-.018-.002-.025-.036-.05-.037-.075 0-.005-.017-.01-.017-.014-.002-.02-.012-.04-.014-.06 0-.008-.006-.018-.007-.028 0-.017-.004-.034-.006-.052l-.006-.045-.005-.043c0-.01-.005-.03-.005-.04 0-.008.146-.018.145-.027-.002-.03.14-.06.14-.09V-349.96c0-1.698-.508-3.406-.712-5.1-.25-2.023-2.126-3.506-4.117-3.506zm-8.127-39.462c-.374 0-.755.053-1.132.164-2.118.624-3.33 2.848-2.705 4.968.993 3.373 1.927 6.83 2.774 10.27.45 1.824 2.083 3.045 3.88 3.045.317 0 .64-.04.96-.118 2.145-.528 3.355-2.695 2.827-4.84-.18-.727-.647-1.452-.647-2.175v-.003c0-.054.072-.108.06-.162-.002-.004-.02-.005-.022-.01-.007-.024-.038-.05-.038-.074v-.004c0-.026.055-.052.048-.078 0-.005.032-.008.03-.012-.005-.023.006-.047 0-.07l.007-.008c-.007-.025-.01-.05-.015-.076-.002-.005 0-.01-.002-.014l-.016-.07-.003-.007-.02-.077c0-.005-.002-.01-.003-.014-.006-.024-.01-.046-.017-.07l-.003-.01-.02-.072c0-.005-.003-.013-.004-.018l-.016-.064-.003-.012-.02-.074c0-.005-.003-.012-.004-.016l-.016-.063-.004-.014-.02-.07-.005-.023c-.004-.02-.01-.037-.014-.055 0-.01-.002-.012-.004-.02l-.02-.07c0-.006-.003-.015-.004-.02l-.016-.06c0-.006-.002-.01-.003-.015l-.02-.072-.005-.02-.014-.055-.006-.02-.018-.07c-.003-.01-.005-.015-.006-.024-.004-.016-.01-.032-.013-.048l-.006-.027-.018-.064-.007-.03c-.005-.014-.01-.03-.013-.044l-.008-.03c-.007-.02-.012-.042-.018-.063l-.007-.027-.012-.047-.008-.028-.016-.066-.01-.026c-.003-.017-.008-.033-.012-.05 0-.004-.006-.02-.007-.024l-.016-.068-.007-.023-.013-.048-.008-.03c-.004-.02-.01-.04-.016-.063l-.008-.028-.013-.047-.007-.028-.018-.065-.007-.027c-.005-.016-.01-.032-.013-.047l-.006-.026-.02-.064-.007-.03c-.004-.016-.01-.03-.012-.046l-.007-.028-.017-.066-.008-.027-.012-.046-.007-.027-.02-.063c0-.01-.004-.017-.006-.027-.004-.017-.01-.034-.013-.05l-.006-.025-.02-.068c0-.01-.002-.013-.005-.022l-.014-.05-.007-.027c-.007-.018-.012-.038-.017-.057l-.01-.034c-.003-.016-.007-.032-.012-.047 0-.01-.004-.02-.007-.03l-.018-.064-.005-.023-.014-.05-.008-.03-.014-.048-.01-.044-.014-.046-.008-.03-.015-.058-.008-.026-.015-.052-.008-.027-.014-.056-.01-.03-.014-.052-.01-.028-.014-.06-.007-.023-.016-.053-.008-.03c-.004-.016-.01-.032-.013-.048l-.012-.04c-.003-.017-.008-.033-.013-.05l-.006-.028-.015-.053-.008-.03-.014-.054-.008-.026-.015-.054-.01-.03c-.003-.018-.008-.037-.014-.056l-.007-.025-.018-.06-.003-.014-.02-.066-.008-.028c-.004-.016-.01-.03-.013-.048l-.01-.038-.016-.05-.008-.03-.013-.048-.01-.033-.015-.055-.01-.03c-.002-.014-.007-.03-.01-.046l-.012-.04-.014-.048c-.003-.01-.006-.024-.01-.033l-.01-.043-.01-.032-.017-.058-.008-.032-.012-.04-.014-.047c-.003-.014-.008-.03-.01-.045-.004-.01-.008-.025-.01-.034l-.012-.036-.012-.044c-.005-.016-.01-.033-.013-.05l-.01-.032-.012-.04-.012-.047-.012-.044-.01-.036c-.004-.012-.008-.024-.01-.036-.004-.01-.01-.026-.01-.035l-.017-.06c-.006-.013-.008-.022-.012-.035l-.01-.032c-.005-.023-.01-.04-.017-.062l-.008-.033-.012-.038-.008-.033-.013-.046-.016-.05-.01-.033-.01-.036-.02-.063c0-.01-.004-.02-.007-.03l-.01-.04-.008-.025c-.016-.05-.028-.095-.043-.146l-.004-.013-.044-.153c-.003-.003-.004-.007-.005-.01l-.045-.156c0-.003-.066-.006-.067-.01-.017-.054-.112-.102-.112-.158v-.003c0-.29-.103-.578-.188-.866-.515-1.74-2.043-2.865-3.77-2.865zM707.255-435.4c-.615 0-1.24.142-1.824.442-1.964 1.01-2.74 3.42-1.73 5.386 1.575 3.068 3.11 6.272 4.557 9.52.663 1.49 2.125 2.374 3.655 2.374.545 0 1.098-.112 1.626-.347 2.014-.897 2.92-3.253 2.032-5.27-.528-1.185-1.064-2.357-1.61-3.522 0-.002 0-.004-.002-.005l-.066-.14-.004-.01-.067-.14v-.005l-.042-.087-.005-.01-.065-.14-.004-.008-.066-.14-.003-.006-.04-.088c-.003-.003-.004-.006-.005-.01-.024-.047-.043-.088-.066-.136-.002-.004-.242-.01-.244-.012-.013-.03-.28-.06-.28-.088v-.003c0-.016.225-.03.217-.045-.002-.005.113-.01.11-.014-.01-.024.035-.055.024-.08 0-.002.027-.007.025-.01-.023-.05-.027-.09-.05-.137-.003-.005-.13-.008-.133-.012-.023-.05-.192-.09-.192-.14v-.244c-1-1.592-1.468-3.162-2.265-4.71-.71-1.375-2.032-2.164-3.48-2.164zM684.8-468.22c-.978 0-1.958.357-2.73 1.077-1.614 1.507-1.7 4.038-.193 5.653 2.256 2.417 4.496 5.052 6.657 7.83.788 1.013 1.968 1.544 3.16 1.544.858 0 1.723-.276 2.452-.844 1.745-1.356 2.06-3.87.703-5.612-.235-.3-.468-.597-.703-.893l-.005-.007c-.006-.01-.014-.018-.02-.027-.004-.002-.005-.004-.008-.007l-.02-.026c-.004-.006-.004-.006-.01-.01-.005-.01-.012-.017-.018-.025-.002-.003-.007-.01-.01-.012l-.017-.023-.012-.013-.02-.023c0-.002-.005-.008-.008-.01-.006-.01-.012-.016-.018-.023l-.015-.02-.013-.016c-.01-.012-.018-.02-.028-.034l-.01-.014-.018-.022c-.005-.005-.01-.01-.013-.015-.007-.01-.008-.012-.016-.02l-.014-.017-.015-.02-.01-.015c-.007-.006-.014-.015-.02-.022l-.01-.013-.02-.023-.008-.01c-.006-.008-.014-.02-.02-.025l-.01-.016-.02-.022-.008-.012-.02-.025-.01-.012-.117-.146-.002-.002-.027-.034-.003-.003-.024-.03-.007-.01-.024-.03c-.002 0-.004-.003-.005-.005-.01-.012-.015-.02-.026-.03l-.005-.006-.027-.035c-1.856-2.3-3.758-4.497-5.7-6.578-.788-.838-1.852-1.262-2.918-1.262zm-32.015-21.136c-1.23 0-2.392.573-3.144 1.53-.312.397-.553.86-.7 1.377-.604 2.126.628 4.34 2.753 4.943 2.946.837 5.92 2.002 8.843 3.462.574.287 1.185.423 1.785.423 1.47 0 2.882-.81 3.582-2.213.987-1.974.188-4.374-1.784-5.363-.242-.12-.484-.24-.727-.358l-.286-.138h-.002c-.013-.007-.022-.01-.033-.017-.002 0-.004-.002-.005-.003l-.032-.015-.005-.002-.03-.015c-.004 0-.006-.002-.008-.003l-.028-.014c-.004 0-.007-.003-.01-.005-.01-.003-.02-.008-.028-.013-.003 0-.005-.002-.008-.003l-.03-.014-.004-.002-.17-.08c-.003 0-.006-.002-.008-.003l-.024-.012-.015-.006c-.008-.006-.013-.008-.022-.012l-.015-.007-.022-.01-.016-.006-.022-.01-.015-.008-.022-.01-.015-.008c-.007-.002-.016-.007-.022-.01l-.015-.007c-.01-.003-.014-.005-.023-.01l-.015-.007-.022-.01-.017-.008-.02-.01c-.005 0-.01-.004-.015-.006l-.04-.02-.018-.008c-.007-.003-.015-.006-.02-.01l-.018-.008-.022-.01c-.006 0-.01-.004-.017-.007l-.02-.01-.017-.007-.02-.01-.018-.008-.02-.008-.02-.01-.016-.007-.023-.01-.016-.008-.022-.01-.015-.008-.024-.01-.015-.007-.03-.014c-.004 0-.005 0-.007-.002l-.04-.017-.007-.003-.03-.014c-.003 0-.006-.003-.008-.004l-.03-.014-.01-.005-.03-.012-.01-.005-.026-.012c-.006 0-.01-.003-.014-.005l-.024-.01-.015-.008-.023-.01-.016-.007-.023-.01-.014-.006c-.007-.004-.015-.008-.024-.01l-.014-.007c-.008-.005-.018-.01-.028-.013l-.01-.004-.115-.052c-.003 0-.006-.002-.01-.004l-.028-.012-.01-.005c-.01-.004-.02-.01-.03-.013l-.01-.004c-.01-.004-.018-.01-.027-.013l-.012-.004-.026-.012-.014-.005c-.008-.004-.017-.008-.025-.01-.003-.003-.01-.005-.012-.007l-.026-.01c-.003-.003-.01-.005-.012-.007l-.026-.01-.012-.005-.028-.013-.01-.004-.116-.05-.01-.005c-.01-.004-.02-.007-.028-.012-.006 0-.007-.002-.013-.004l-.028-.012-.01-.005-.028-.012-.013-.006-.024-.01-.014-.007-.024-.01-.014-.006c-.008-.005-.017-.008-.026-.012-.003 0-.01-.004-.012-.006l-.026-.01c-.003 0-.01-.005-.014-.006l-.025-.01-.012-.006c-.01-.005-.02-.01-.032-.014-.003 0-.003-.09-.006-.09-.012-.006-.026-.106-.04-.106-.013 0-.025.078-.037.073-.003-.002-.008.04-.01.04-.01-.005-.02.013-.028.01-.007-.003-.008.007-.014.005-.006-.004-.015 0-.023-.005l-.016-.004c-.006-.004-.014-.006-.022-.01l-.015-.004-.024-.01c-.007-.004-.01-.004-.015-.006l-.025-.01-.013-.006-.024-.01-.016-.007-.024-.01-.013-.006c-.01-.002-.02-.006-.027-.01l-.012-.005-.03-.013c-.003 0-.004 0-.007-.003l-.04-.017-.005-.002c-.01-.004-.02-.01-.032-.013l-.012-.004-.026-.012c-.006 0-.01-.002-.015-.004l-.024-.01-.016-.007-.022-.01-.018-.007-.02-.01c-.007 0-.012-.004-.018-.006l-.022-.01c-.005 0-.01-.003-.016-.005l-.023-.01-.016-.006-.022-.01c-.006 0-.01-.004-.017-.006l-.02-.01c-.008 0-.012-.003-.017-.006l-.027-.01c-.003 0-.01-.004-.012-.005-.012-.006-.025-.012-.038-.016l-.015-.007-.02-.01c-.008 0-.016-.005-.022-.007l-.018-.007-.02-.008-.018-.008-.02-.008-.017-.008-.022-.008-.017-.007-.022-.01c-.005 0-.01-.003-.016-.006l-.02-.007-.018-.007-.022-.008-.014-.006-.024-.01-.013-.005-.025-.01c-.004 0-.007-.003-.01-.004l-.096-.038c-.002 0-.003 0-.005-.002l-.027-.01-.01-.005-.025-.01-.013-.006-.026-.01c-.005 0-.01-.002-.013-.004l-.026-.01-.01-.005-.028-.01-.01-.004c-.01-.006-.015-.007-.027-.012l-.01-.004c-.01-.004-.018-.008-.028-.01l-.008-.004-.03-.012c-.002 0-.004 0-.006-.002l-.213-.083h-.003l-.032-.013-.006-.002-.03-.012c-.004 0-.006-.002-.008-.003l-.032-.012h-.004l-.032-.013-.006-.002-.034-.013c-1.547-.59-3.11-1.11-4.684-1.557-.362-.103-.726-.15-1.085-.15zM652.325-481.31c-.21-.063-.422-.137-.632-.197-2.125-.604-3.357-2.817-2.752-4.942.147-.516.398-.97.71-1.37-17.514-40.713-45.406-70.37-76.822-70.37-53.025 0-96.01 84.476-96.01 164.013 0 44.608 7.643 63.105 27.96 90.46 15.908 21.42 42.542 33.554 68.05 33.554 29.16-1.86 56.16-13.86 73.44-40.182 17.36-26.444 22.57-44.063 22.57-83.832 0-29.934-6.092-60.566-16.513-87.133zM545.847-358.26c.365-2.728 1.153-5.45 1.153-8.158v-.004c0-.054.098-.108.107-.162 0-.005.08-.007.082-.012.007-.05.016-.102.025-.154 0-.005-.113-.013-.11-.018.002-.023-.105-.048-.105-.07v-.007c0-.024.123-.048.128-.072 0-.01.06-.018.062-.027.002-.017.035-.035.037-.05.002-.01.017-.015.018-.024.004-.02.016-.044.02-.064l.008-.04.008-.032.017-.084c0-.004.002-.008.004-.013l.01-.052v-.012c.106-.61.212-1.216.322-1.825.352-1.928 2.035-3.28 3.93-3.28.235 0 .47.02.71.064 2.173.39 3.617 2.47 3.226 4.644-.625 3.484-1.184 7.021-1.652 10.515-.27 2.01-1.997 3.47-3.97 3.47-.177 0-.376-.012-.556-.037-2.19-.293-3.766-2.305-3.473-4.495zm-1.8 41.154c-.086-2.896-.047-6.142-.047-9.287V-328.107c0-.082-.09-.005-.09-.087.02-2.197 1.715-3.803 3.91-3.803h.022c2.21 0 3.99 1.705 3.978 3.915-.002.377-.002.648-.002 1.027 0 3.35.045 6.693.133 9.707.067 2.207-1.67 3.35-3.88 4.35h-.12c-2.15 0-3.835-1.943-3.904-4.106zm10.687 42.85c-.394.12-.793.18-1.186.18-1.703 0-3.28-1.096-3.815-2.805-1.056-3.398-1.957-6.934-2.716-10.68-.43-2.16.968-4.26 3.13-4.7.266-.053.534-.08.797-.08 1.864 0 3.532 1.31 3.916 3.206.703 3.47 1.524 6.698 2.51 9.87.653 2.11-.525 4.352-2.636 5.007zM565.73-405.97c-1.19 3.29-2.325 6.68-3.375 10.073-.53 1.716-2.113 2.82-3.82 2.82-.39 0-.79-.06-1.183-.18-2.108-.653-3.29-2.89-2.64-5 1.094-3.538 2.26-7.02 3.502-10.45.593-1.618 2.124-2.625 3.757-2.625.452 0 .91.077 1.36.24 2.078.75 3.152 3.045 2.4 5.122zm16.905-35.446c-1.798 2.9-3.56 5.96-5.24 9.095-.72 1.347-2.102 2.113-3.53 2.113-.636 0-1.283-.153-1.884-.475-1.947-1.043-2.68-3.467-1.636-5.414 1.098-2.052 2.226-4.064 3.38-6.032l.005-.008.08-.137c0-.003.004-.007.006-.01.012-.022.024-.043.038-.064l.007-.014.036-.06c.005-.007.003-.005.007-.013l.033-.054c.003-.008.007-.015.012-.022l.034-.055.013-.023.025-.042c.007-.014.013-.025.023-.04l.018-.032c.007-.01.012-.023.02-.034.006-.013.01-.025.018-.04.01-.013.012-.028.02-.042.004-.007-.007-.013-.003-.02.014-.02 0-.044.014-.066 0-.005-.05-.01-.047-.014.01-.015-.083-.025-.083-.04v-.002c0-.03.142-.057.16-.086l.108-.002c.52-.873 1.045-1.74 1.575-2.594.76-1.212 2.062-1.88 3.396-1.88.717 0 1.446.194 2.102.6 1.878 1.164 2.457 3.63 1.293 5.508zm24.704-28.996c-2.52 2.016-5.036 4.29-7.48 6.755-.782.79-1.81 1.184-2.84 1.184-1.018 0-2.036-.387-2.817-1.16-1.568-1.555-1.58-4.087-.025-5.656l.003-.003c.01-.007.017-.016.025-.024l.008-.007.022-.024.01-.01.022-.02c.005-.007.005-.006.01-.01.006-.008.012-.015.02-.022l.012-.012c.005-.007.01-.013.018-.02l.014-.013.015-.017.018-.018.013-.012.022-.022.008-.007.023-.025.01-.007.025-.025.006-.005.028-.028c.002 0 .003-.002.004-.003l.03-.032c.012-.01.02-.02.03-.03l.003-.003c1.707-1.704 3.443-3.32 5.208-4.845.002 0 .004-.003.006-.004l.027-.025s.003 0 .004-.002l.03-.024.006-.006.026-.022.008-.007.023-.02.012-.01.02-.02.012-.01.022-.017c.002-.004.006-.007.01-.01.006-.005.016-.013.02-.018l.015-.012.016-.014.02-.016.014-.013.018-.014.014-.013.018-.015.015-.012c.004-.006.01-.01.018-.016.002-.003.008-.008.012-.01l.02-.02c.003-.002.01-.006.01-.008.01-.006.017-.013.024-.02l.008-.006c.008-.008.017-.015.026-.02.002-.004.004-.005.006-.007l.027-.025h.002c.68-.577 1.36-1.14 2.048-1.69.736-.59 1.62-.878 2.496-.878 1.174 0 2.336.514 3.126 1.5 1.38 1.725 1.1 4.243-.623 5.623zm32.488-12.78c-3.054 0-6.147.34-9.194 1.01-.29.064-.58.096-.864.096-1.836 0-3.492-1.27-3.903-3.14-.474-2.156.89-4.285 3.047-4.76.042-.01.084-.016.126-.016h.046c.012 0 .023-.02.035-.022l.008-.017c.01 0 .023 0 .033-.004.004 0 .007.003.01.002.01-.002.023.004.033.002.003 0 .005.016.008.015.013-.003.024.025.037.025H629.34c.013 0 .024-.048.036-.05.004 0 .007-.045.01-.045l.03-.007.015-.002.024-.006c.006 0 .01-.002.016-.003l.023-.005c.007 0 .012-.003.02-.004l.02-.004c.006 0 .013-.002.02-.004.006 0 .01.067.018.066.01-.002.013.064.023.064h.016c.01 0 .013-.066.023-.068.005 0 .01-.026.015-.027l.048-.006c.004-.002.01.03.014.03.01-.002.017.07.026.07h.013c.008 0 .015-.08.024-.082.005 0 .01-.072.015-.073.008-.002.015.02.023.02.005-.002.01.045.015.044.006-.002.02.09.025.09h.014c.007 0 .02-.09.027-.092.003 0 .007-.082.01-.083.01-.002.02.023.03.022.002 0 .005.052.01.05.01 0 .02.103.03.103h.266c2.094-1 4.205-1 6.337-1H636.656c.08 0 .273-.02.322-.03l.02-.023v.02s-.014 0-.02.003c-.013.014-.025.03-.018.03H639.827c2.21 0 4 1.696 4 3.905s-1.79 3.904-4 3.904z"/><g fill="#2C3E50"><path d="M280.115 140H280.466l-.463-.02c.006 0 .088.02.112.02zM280 139.99l-.27.01h.27c.014 0-.002-.01-.002-.012v.003zM215.828 73.81c-53.025 0-96.01 84.476-96.01 164.013 0 44.608 7.643 63.105 27.96 90.46 15.908 21.42 42.543 33.554 68.05 33.554 29.16-1.86 56.16-13.86 73.44-40.182 17.36-26.444 22.57-44.063 22.57-83.832 0-79.537-42.986-164.014-96.01-164.014zm-18.196 258.657c-.218.015-.434.02-.65.02-4.394 0-8.114-3.39-8.463-7.843-.396-5.23-.62-10.888-.683-17.04-.04-4.686 3.723-8.604 8.412-8.604h.09c4.652 0 8.448 3.778 8.496 8.442.06 5.857.268 11.082.633 15.912.352 4.68-3.156 8.76-7.838 9.113zm15.74-89.356c-1.42 5.036-2.688 10.206-3.767 15.37-.837 4.008-4.372 6.762-8.312 6.762-.576 0-1.16-.058-1.747-.18-4.595-.96-7.542-5.464-6.582-10.06 1.167-5.583 2.52-11.097 4.048-16.508 1.057-3.746 4.467-6.193 8.176-6.193.764 0 1.54.104 2.313.322 4.52 1.275 7.148 5.972 5.872 10.49zm26.87-57.62c-2.864 3.897-5.646 8.17-8.27 12.695-1.576 2.72-4.43 4.24-7.362 4.24-1.446 0-2.912-.37-4.254-1.147-4.061-2.354-5.446-7.554-3.092-11.616 1.917-3.308 3.91-6.497 5.975-9.55.048-.074.097-.145.146-.218v-.002c.026-.036.05-.07.074-.108l.036-.052.003-.004.106-.158.004-.005.072-.106.002-.003.033-.05.005-.006.033-.047.002-.004.035-.052.007-.01.026-.038.01-.017.026-.036.008-.013c.01-.016.023-.032.034-.048.002-.003.005-.008.008-.01l.025-.038c.004-.007.01-.013.013-.02l.02-.028.014-.02.022-.033.024-.035c.006-.008.01-.016.017-.024l.017-.026.016-.022.017-.024.014-.02.038-.055.01-.013c.008-.01.013-.02.02-.03.005-.005.008-.01.012-.017l.02-.03.01-.014.075-.106.005-.008.024-.034.006-.01c.733-1.054 1.476-2.094 2.226-3.114 1.666-2.254 4.237-3.448 6.842-3.448 1.747 0 3.51.537 5.026 1.65 3.784 2.78 4.597 8.1 1.817 11.884zm43.586-28.683c-3.712 0-7.49.64-11.233 1.908-.905.307-1.825.45-2.73.45-3.542 0-6.848-2.24-8.05-5.784-1.505-4.445.878-9.285 5.325-10.792 1.184-.402 2.377-.792 3.577-1.11l.004-.063c.01-.002.02-.127.03-.13.054-.013.105.715.158-.285h.005c.01 0 .02.24.028.236l.005.242.028-.007h.006l.118-.03c.002-.002.004-.002.008-.003l.024-.006h.01l.023-.008c.007 0 .005 0 .01-.002l.024-.006.012-.003c.007 0 .013-.003.02-.005l.015-.003.08-.02.005-.002.023-.006.013-.003c.007 0 .015-.002.02-.004l.014-.004c.007 0 .015-.003.022-.005l.01-.003.025-.006.01-.002.023-.006.01-.003.047-.01.01-.004.024-.006c.004 0 .007 0 .01-.002l.023-.005.014-.004c.006 0 .013-.003.02-.005l.014-.002.02-.005c.004 0 .012-.003.015-.004l.022-.006.02-.005.025-.007.02-.005c.007 0 .012-.003.018-.004l.018-.005.018-.005.017-.004.017-.003.02-.005.016-.004.02-.004.014-.004.027-.006.017-.005.027-.007.012-.002c.007 0 .016-.003.023-.005.005 0 .01-.002.017-.004l.018-.003.017-.004.018-.004.016-.005.024-.006.012-.004.03-.007.01-.003.03-.008c.003 0 .006-.003.01-.003.01-.003.018-.006.026-.007.004 0 .007-.004.01-.005.007 0 .02-.008.027-.01 0 0 .005-.01.01-.01s.018-.02.024-.02c.005-.002.007-.035.01-.036.014-.004.02-.07.032-.07h.004c.025 0 .048.05.073.045.003 0 .004.06.006.06l.028-.006c.004 0 .007-.003.01-.004l.027-.006.01-.003c.006 0 .02-.006.025-.008.004 0 .007-.006.01-.006.01-.003.02-.01.03-.013.002 0 .004-.015.007-.015.024-.006.048-.045.072-.045h.003c.013 0 .02.024.032.02.003 0 .005.027.008.027l.03-.007c.002 0 .003 0 .005-.002l.03-.006.01-.002.028-.006c.002 0 .005 0 .007-.002l.073-.015c.014-.003.023-.007.035-.007h.01c.01 0 .02-.003.028-.005.003 0 .005.003.008.003.013-.003.018.002.03.002h.382c.014 0-.407-.026-.407-.03v-.02c0-.003.47.05.48.05H273.94c.063 0 .125-.003.188-.014.013-.003.025.014.037.014h.456c1.314-1 2.382-.613 4.382-.753v-.177c0-.007-.082-.03-.017-.036.01 0-.186-.034-.173-.034h.002c.05 0 .188.018.188.013v.01s.027-.023.04-.023h.234c.05 0 .1 0 .152-.005.013 0 .024.005.037.005H279.503c.065 0 .497-.007.497-.012v-.008c.003-.002.052-.018 1-.018 0 0-.447.038-.422.038H281.895c.01 0 .055-.018.08-.03l.026-.047v.038l-.025.01c-.006.015-.013.03-.008.03h1.86c4.694 0 8.5 3.71 8.5 8.403s-3.805 8.404-8.5 8.404z"/></g><path fill="#2C3E50" d="M-577.182-585.177c0-79.537 42.985-164.014 96.01-164.014 53.024 0 96.01 84.476 96.01 164.013 0 39.77-5.21 57.388-22.57 83.832-17.28 26.323-44.28 38.323-73.44 40.182-25.507 0-52.142-12.134-68.05-33.554-20.317-27.355-27.96-45.852-27.96-90.46zM-411.172-669H-413.03c-.014 0 .032-.077.032-.077v.038s-.093.04-.107.04H-414.883c-.026 0-.116-.022-.116-.02v.008s.015.012.003.012h-.275l.27-.01v-.002c0 .005-.432.012-.497.012h-.041l-.462.003v-.008c0 .004.323.005.273.005H-416.19c-.014 0 .185.033.172.034-.064.007.018.03.018.036v.177c-2 .14-3.068-.247-4.382.753h-.456c-.013 0-.162-.122-.162-.12v.042c0 .012 0 .078-.063.078H-421.973c-.012 0-.018-.005-.03-.002-.003 0-.005-.003-.007-.003-.01.002-.02.005-.03.005h-.008c-.013 0-.022.004-.035.007l-.074.015c-.002 0-.005 0-.007.002l-.028.005c-.003 0-.007 0-.01.002l-.03.006s-.003 0-.005.002l-.03.006c-.002 0-.005-.027-.007-.026-.013.003-.02-.02-.032-.02h-.004c-.025 0-.048.04-.073.044-.003 0-.005.016-.007.017-.01.003-.02.01-.03.014-.002 0-.006.005-.01.006-.005 0-.02.005-.025.007l-.01.003-.027.006-.01.002-.03.008s-.003-.06-.005-.06c-.025.005-.048-.046-.073-.046h-.004c-.012 0-.017.066-.03.07-.004 0-.008.032-.012.033-.006.002-.018.02-.025.022-.004 0-.008.01-.01.01l-.027.01c-.004 0-.007.003-.01.004-.01 0-.018.004-.027.007l-.01.002c-.01 0-.02.004-.03.007-.002 0-.005 0-.008.002l-.032.006c-.004 0-.008.002-.01.003-.007 0-.02.003-.025.004l-.015.004-.02.005c-.004 0-.01.002-.015.004-.006 0-.012.003-.02.004-.004.003-.01.003-.015.005l-.022.005-.012.003-.025.006-.018.003-.026.007-.016.004c-.006 0-.01.002-.018.004-.005 0-.01.003-.017.004l-.02.004-.016.005-.018.005-.018.004c-.006 0-.012.002-.018.004-.006 0-.01.002-.016.003l-.02.006-.027.006c-.01 0-.01.002-.02.004l-.02.005-.016.003c-.005 0-.013.003-.02.005l-.013.003-.02.006-.014.003c-.008 0-.015.003-.023.005l-.01.002-.023.006-.01.003-.047.01-.01.004-.022.006-.01.002-.024.006-.012.003-.022.005-.012.004c-.008 0-.015.003-.022.005l-.012.004-.023.006h-.004l-.08.022-.016.003-.02.006-.013.004-.023.006c-.006 0-.004 0-.01.002l-.024.007h-.01l-.024.007c-.003 0-.005 0-.008.002l-.12.03h-.004l-.028.008-.005-.242c-.008.003-.018-.236-.027-.236h-.005c-.053 1 .092.27.092.285v.123c0 .002-.145.066-.154.068l-.067.033c-1.2.316-2.424.69-3.61 1.093-4.445 1.507-6.844 6.34-5.338 10.785 1.2 3.542 4.498 5.78 8.042 5.78.904 0 1.82-.145 2.725-.45 3.74-1.27 7.518-1.91 11.23-1.91 4.694 0 8.5-3.71 8.5-8.404s-3.807-8.404-8.5-8.404h-.002zm-50.43 31.957c-2.605 0-5.176 1.193-6.842 3.447-.75 1.02-1.493 2.06-2.226 3.115l-.006.008-.024.034-.005.008-.074.106-.01.016-.02.03-.012.016c-.007.01-.012.02-.02.03-.003.004-.006.01-.01.013-.01.018-.025.038-.037.055l-.013.02-.017.025-.016.023-.017.025c-.006.01-.01.017-.017.025l-.024.035-.022.03-.014.023-.02.03c-.004.005-.01.012-.013.018-.01.013-.017.025-.025.037l-.008.01c-.01.017-.023.034-.034.05l-.008.012-.025.036-.01.017c-.01.013-.02.026-.028.04-.004.003-.005.005-.007.008l-.036.052-.002.003-.033.048-.005.008c-.01.017-.022.033-.033.05l-.002.002-.072.105-.004.005c-.036.053-.07.106-.107.158l-.004.005-.035.052-.073.108v.002c-.05.072-.1.144-.148.217-2.066 3.054-4.06 6.242-5.976 9.55-2.354 4.062-.97 9.263 3.092 11.617 1.342.776 2.808 1.146 4.254 1.146 2.933 0 5.786-1.52 7.362-4.24 2.624-4.527 5.406-8.798 8.27-12.696 2.78-3.783 1.966-9.103-1.818-11.883-1.516-1.114-3.278-1.65-5.026-1.65zm-28.21 60.343c-3.71 0-7.12 2.448-8.176 6.194-1.528 5.41-2.88 10.925-4.048 16.508-.96 4.595 1.987 9.1 6.582 10.06.587.122 1.17.18 1.747.18 3.94 0 7.475-2.754 8.312-6.763 1.08-5.163 2.346-10.333 3.767-15.37 1.275-4.517-1.353-9.213-5.87-10.488-.774-.218-1.55-.322-2.315-.322zm-8.85 66.7h-.09c-4.688 0-8.45 3.918-8.41 8.604.063 6.152.286 11.81.68 17.04.35 4.45 4.07 7.843 8.466 7.843.214 0 .43-.004.648-.02 4.682-.354 8.19-4.433 7.837-9.114-.365-4.83-.572-10.054-.633-15.91-.05-4.664-3.845-8.443-8.498-8.443zm14.005 63.394c-1.43 0-2.882.362-4.213 1.124-4.07 2.33-5.486 7.513-3.165 11.586.153.267.307.535.462.8l.008.013.054.095.01.02.014.022.024.04c.004.01.008.014.012.022l.018.03c.003.006.007.01.01.018l.026.044.008.014c.007.012.015.024.02.037l.01.01c.008.017.018.033.027.05l.003.007.027.045c.002.003.135.004.137.007.01.016.163.033.163.05v.002c0 .018-.11-.432-.1-.432h-.067c2.48 5 5.254 8.704 8.408 13.137 1.66 2.33 4.26 3.693 6.917 3.693 1.705 0 3.42-.45 4.913-1.515 3.825-2.72 4.715-7.998 1.994-11.823-3.367-4.73-6.093-8.916-8.333-12.832-1.57-2.744-4.438-4.266-7.387-4.266zm45.61 43.16c-3.414 0-6.635 2.074-7.934 5.45-1.687 4.382.498 9.3 4.88 10.986 5.315 2.046 10.807 3.573 16.35 4.553.5.088 1 .13 1.49.13 4.046 0 7.632-2.9 8.36-7.022.818-4.62-2.268-9.03-6.89-9.848-4.475-.79-8.918-2.028-13.206-3.677-1.004-.387-2.035-.57-3.05-.57zm74.67-10.54c-1.72 0-3.456.52-4.958 1.6-3.64 2.62-7.615 4.92-11.818 6.84-4.27 1.948-6.153 6.99-4.204 11.26 1.428 3.127 4.512 4.974 7.738 4.974 1.182 0 2.382-.248 3.526-.77.922-.42 1.838-.858 2.746-1.31l.003-.002c.037-.02.075-.037.113-.056l.006-.003c.02-.01.037-.02.056-.028l.003-.002c.018-.01.036-.02.055-.028 0 0 .002 0 .003-.002l.055-.027c.003 0 .006 0 .01-.003.017-.01.035-.018.053-.027.018-.01.036-.02.053-.027l.012-.006.05-.025.012-.006.043-.022.012-.006.047-.024.017-.01.04-.02.02-.01c.012-.006.025-.012.037-.02.008-.002.014-.005.02-.01l.046-.02.017-.01.034-.017.02-.01.043-.023.022-.01c.01-.006.02-.012.03-.016.01-.006.023-.013.035-.018.008-.004.017-.01.027-.014.007-.004.017-.01.024-.012l.035-.02.03-.015.024-.012.03-.016.035-.018.027-.014.023-.012.04-.02.023-.013.028-.014.03-.015.035-.02.02-.01.05-.025.015-.008.03-.016.014-.007c.02-.012.04-.022.06-.032 0-.002.003-.003.006-.004l.106-.055c0-.002-.22-.003-.218-.004.036-.02-.114-.037-.114-.056v.137c2-.928 3.935-1.827 5.634-2.827.036 0 .07-.18.105-.202 0 0 .002-.072.004-.073.02-.012.042-.06.063-.073.002 0 .003-.02.005-.02.012-.008.022-.022.034-.03.002 0 .004-.007.006-.008.02-.012.04-.027.058-.04.005 0 .008-.005.012-.007l.096-.06.014-.01.05-.03.015-.01.03-.02.013-.007.05-.03c.005-.005.012-.01.018-.013.01-.006.018-.01.026-.017l.038-.024.023-.014.028-.018.023-.014.037-.023.02-.014.038-.023.022-.014.033-.02.018-.012c.014-.01.03-.018.043-.027l.016-.01c.013-.01.025-.017.038-.025l.01-.006.048-.03.012-.008.05-.03.005-.005.046-.03.01-.006.05-.03c0-.002.006-.005.008-.006l.104-.067.005-.002c.036-.022.072-.046.108-.07h.002c1.193-.77 2.37-1.573 3.528-2.407 3.81-2.742 4.677-8.053 1.934-11.864-1.662-2.31-4.265-3.537-6.907-3.536zm35.535-52.588c-3.646 0-7.017 2.364-8.13 6.033-1.345 4.428-3.065 8.753-5.26 13.224-2.07 4.213-.33 9.307 3.883 11.376 1.206.59 2.484.872 3.742.872 3.14 0 6.158-1.747 7.635-4.756 1.8-3.662 3.354-7.297 4.69-11.016.03-.082.06-.164.088-.246 0 0 .087-.003.087-.005.007-.02.108-.04.108-.06v-.002c0-.06-.043-.12-.022-.18 0-.003-.04-.007-.04-.008.007-.02-.008-.038-.002-.057 0 0 .023-.004.023-.006.006-.02.04-.038.04-.057v-.003c0-.018-.018-.036-.012-.055.002-.003-.014-.006-.013-.008.007-.018.006-.035.012-.053v-.013c.006-.017.01-.034.017-.05 0-.006-.012-.007-.01-.012.006-.017.006-.035.006-.053v-.003c0-.02.025-.037.03-.054.002-.005.01-.008.012-.013.005-.016.014-.033.02-.05.002-.004.006-.01.007-.015.005-.017.01-.033.017-.05l.005-.013.016-.044.006-.016.015-.045c0-.007.003-.012.005-.02l.015-.044.008-.02.016-.047.006-.02.01-.033c.005-.01.01-.02.012-.03.004-.01.007-.022.01-.034l.01-.023.013-.04.01-.028.01-.032c.004-.01.008-.02.01-.03.005-.01.008-.022.012-.032l.01-.032.01-.03c.005-.01.007-.018.01-.028.004-.01.008-.022.01-.032l.014-.038.006-.014.018-.054c0-.005.003-.01.005-.015l.016-.052.006-.015.01-.033.003-.005.02-.064.005-.012.02-.06c0-.002-.23-.004-.23-.006.006-.02-.21-.047-.21-.068v-.003c1-.866.8-1.738 1.066-2.618 1.35-4.488-1.068-9.224-5.554-10.586-.822-.25-1.537-.37-2.354-.368zm4.346-66.278c-.246 0-.495.01-.745.032-4.678.406-8.14 4.527-7.734 9.204.458 5.268.724 10.81.793 15.978.06 4.656 3.854 8.638 8.496 8.638h.115c4.694-1 8.45-4.168 8.387-8.862-.074-5.65-.363-11.444-.855-17.1-.384-4.427-4.096-7.89-8.458-7.89zm-15.357-65.53c-1.042 0-2.1.193-3.128.6-4.366 1.73-6.502 6.67-4.773 11.033 1.898 4.792 3.663 9.785 5.245 14.84 1.137 3.636 4.49 5.965 8.11 5.965.84 0 1.695-.126 2.54-.39 4.474-1.4 6.97-6.157 5.58-10.63-1.717-5.49-3.615-10.86-5.68-16.07-1.327-3.322-4.52-5.347-7.894-5.347zm-35.52-55.062c-2.327 0-4.644.95-6.322 2.815-3.14 3.49-2.856 8.865.634 12.005 3.352 3.017 6.67 6.533 9.865 10.45 1.68 2.06 4.126 3.128 6.592 3.128 1.89 0 3.79-.627 5.367-1.913 3.638-2.967 4.182-8.32 1.216-11.96l-.086-.104-.003-.004c-.028-.035-.055-.07-.083-.103-.003-.004 0-.002-.004-.005l-.084-.103-.004-.003c-.013-.018-.027-.034-.04-.05l-.002-.003-.042-.05-.005-.007-.038-.046-.005-.004-.082-.1-.007-.008-.04-.05-.04-.048-.01-.01c-.01-.014-.022-.028-.033-.04l-.006-.01-.04-.046-.008-.01-.03-.037-.014-.014-.036-.043-.012-.015c-.01-.01-.018-.022-.027-.032 0-.003-.01-.013-.013-.017-.01-.015-.023-.03-.035-.043-.005-.007-.007-.01-.013-.015-.01-.01-.017-.02-.026-.032l-.016-.02-.034-.04-.006-.006c-.01-.014-.022-.026-.033-.04l-.017-.02c-.007-.01-.014-.017-.022-.026-.007-.01-.017-.02-.025-.03-.006-.01-.015-.02-.022-.028l-.022-.026-.014-.017-.075-.09-.016-.018-.02-.027-.013-.014-.04-.05-.014-.016-.023-.027-.014-.016-.042-.05-.01-.012-.026-.03-.008-.01c-.018-.02-.034-.04-.05-.06l-.006-.005-.026-.032-.008-.008-.085-.1c0-.002-.002-.003-.003-.004l-.086-.1-.007-.01c-3.224-3.79-6.574-7.26-10.042-10.38-1.62-1.448-3.644-2.162-5.66-2.162z"/></svg>